<svg width="181" height="135" viewBox="0 0 181 135" fill="none" xmlns="http://www.w3.org/2000/svg">
<circle cx="139.345" cy="22.7645" r="17.511" fill="#FFEBAD"/>
<path fill-rule="evenodd" clip-rule="evenodd" d="M122.322 18.6426C122.003 19.9643 121.834 21.3446 121.834 22.7642C121.834 32.4353 129.674 40.2753 139.345 40.2753C143.41 40.2753 147.151 38.8905 150.122 36.567L122.322 18.6426Z" fill="#FFE285"/>
<circle cx="94.7048" cy="58.8501" r="48.1554" transform="rotate(-8.2231 94.7048 58.8501)" fill="#FFCE33"/>
<circle cx="86.5695" cy="74.7656" r="6.12886" transform="rotate(-5.71178 86.5695 74.7656)" fill="#665214"/>
<circle cx="119.675" cy="71.454" r="6.12886" transform="rotate(-5.71178 119.675 71.454)" fill="#665214"/>
<path d="M96.2583 71.6099L102.182 71.0173L108.107 70.4248" stroke="#CCA529" stroke-width="3"/>
<circle cx="82.0897" cy="74.5229" r="14.8728" transform="rotate(-5.71178 82.0897 74.5229)" stroke="#CCA529" stroke-width="3"/>
<circle cx="123.559" cy="70.3752" r="14.8728" transform="rotate(-5.71178 123.559 70.3752)" stroke="#CCA529" stroke-width="3"/>
<path d="M161.774 92.8327C160.144 94.4681 157.354 93.7251 156.753 91.4953L152.749 76.6373C152.148 74.4075 154.186 72.3632 156.417 72.9576L171.287 76.9185C173.519 77.5129 174.27 80.3002 172.639 81.9356L161.774 92.8327Z" fill="#303030"/>
<circle cx="135.756" cy="115.756" r="8.75552" fill="#FFEBAD"/>
<circle cx="18.8155" cy="36.8155" r="4.81554" fill="#FFEBAD"/>
<circle cx="56.6053" cy="4.81554" r="4.81554" fill="#303030"/>
<path fill-rule="evenodd" clip-rule="evenodd" d="M60.9957 68.697L60.1076 68.7311L48.3962 72.0772C52.095 85.089 61.004 95.582 72.4511 101.559L60.9957 68.697Z" fill="#E6B92E"/>
<path d="M58.9234 111.922C58.6573 115.762 54.3343 117.874 51.142 115.724L18.3411 93.6292C15.1487 91.4789 15.4813 86.6791 18.9397 84.9897L54.4745 67.6304C57.9329 65.941 61.9233 68.6289 61.6573 72.4687L58.9234 111.922Z" fill="#303030"/>
</svg>
