<svg width="152" height="120" viewBox="0 0 152 120" fill="none" xmlns="http://www.w3.org/2000/svg">
<circle cx="57.5001" cy="58.627" r="42.9825" transform="rotate(-9.62671 57.5001 58.627)" fill="#FFCE33"/>
<path d="M53.2241 68.468L59.1728 68.4013L64.7815 66.5077" stroke="#665214" stroke-width="5" stroke-linecap="round"/>
<circle cx="42.5993" cy="59.5692" r="5.47049" transform="rotate(-9.62671 42.5993 59.5692)" fill="#665214"/>
<circle cx="71.8776" cy="54.6031" r="5.47049" transform="rotate(-9.62671 71.8776 54.6031)" fill="#665214"/>
<path d="M51.1772 58.1143L56.4166 57.2256L61.656 56.3369" stroke="#CCA529" stroke-width="3"/>
<circle cx="38.7376" cy="61.5715" r="13.114" transform="rotate(-9.62671 38.7376 61.5715)" stroke="#CCA529" stroke-width="3"/>
<circle cx="75.541" cy="55.1709" r="12.9577" transform="rotate(-9.62671 75.541 55.1709)" stroke="#CCA529" stroke-width="3"/>
<path fill-rule="evenodd" clip-rule="evenodd" d="M78.0286 96.4042C91.8287 88.9065 100.687 74.2209 100.486 58.1448L89.96 58.2629L78.0286 96.4042Z" fill="#E6B92E"/>
<rect x="93.217" y="40.8809" width="57.6744" height="72.093" rx="5" transform="rotate(6.50068 93.217 40.8809)" fill="#303030"/>
<rect width="46.6553" height="3.5766" rx="1.7883" transform="matrix(0.992766 0.120067 -0.106745 0.994286 96.7236 59)" fill="#E6E6E6"/>
<rect width="43.0303" height="3.5766" rx="1.7883" transform="matrix(0.992766 0.120067 -0.106745 0.994286 95.603 68.8347)" fill="#E6E6E6"/>
<rect width="47.4488" height="3.5766" rx="1.7883" transform="matrix(0.992766 0.120067 -0.106745 0.994286 94.4851 78.6448)" fill="#E6E6E6"/>
<rect width="31.564" height="3.5766" rx="1.7883" transform="matrix(0.992766 0.120067 -0.106745 0.994286 93.364 88.4849)" fill="#E6E6E6"/>
<rect width="43.0303" height="3.5766" rx="1.7883" transform="matrix(0.992766 0.120067 -0.106745 0.994286 92.2551 98.2162)" fill="#E6E6E6"/>
<rect x="107.09" y="33.7544" width="32.4418" height="21.6279" rx="5" transform="rotate(6.50068 107.09 33.7544)" fill="#FFCE33"/>
<path d="M132.146 45.5727C132.208 45.024 131.814 44.5284 131.265 44.4659C130.717 44.4034 130.221 44.7975 130.159 45.3463L132.146 45.5727ZM130.159 45.3463L128.718 57.9868L130.705 58.2132L132.146 45.5727L130.159 45.3463Z" fill="#E6B92E"/>
<path d="M123.55 44.5932C123.612 44.0445 123.218 43.5489 122.67 43.4864C122.121 43.4239 121.625 43.818 121.563 44.3668L123.55 44.5932ZM121.563 44.3668L120.122 57.0073L122.11 57.2337L123.55 44.5932L121.563 44.3668Z" fill="#E6B92E"/>
<path d="M115.671 43.6952C115.733 43.1465 115.339 42.651 114.79 42.5885C114.241 42.5259 113.746 42.9201 113.683 43.4688L115.671 43.6952ZM113.683 43.4688L112.243 56.1093L114.23 56.3357L115.671 43.6952L113.683 43.4688Z" fill="#E6B92E"/>
<path d="M94.2461 2L94.2461 9.81499" stroke="#FFCE33" stroke-width="3" stroke-linecap="round"/>
<path d="M94.2461 14.5039L94.2461 22.3189" stroke="#FFCE33" stroke-width="3" stroke-linecap="round"/>
<path d="M97.3723 12.1594H102.061" stroke="#FFCE33" stroke-width="3" stroke-linecap="round"/>
<path d="M86.4314 12.1594H91.1204" stroke="#FFCE33" stroke-width="3" stroke-linecap="round"/>
<circle cx="110.658" cy="8.25196" r="1.563" fill="#FFCE33"/>
<circle cx="18.8654" cy="96.2042" r="3.51675" fill="#FFF0C2"/>
<circle cx="6.36124" cy="86.0448" r="5.86124" fill="#FFCE33"/>
</svg>
