<svg width="170" height="118" viewBox="0 0 170 118" fill="none" xmlns="http://www.w3.org/2000/svg">
<circle cx="86.6666" cy="55.8333" r="45.8333" fill="#FFCE33"/>
<circle cx="74.1668" cy="54.1668" r="5.83333" fill="#665214"/>
<circle cx="105.833" cy="54.1668" r="5.83333" fill="#665214"/>
<path fill-rule="evenodd" clip-rule="evenodd" d="M45.9546 76.6069C53.2224 90.439 67.214 100.223 83.6149 101.667L55.6121 74.3458L45.9546 76.6069Z" fill="#E6B92E"/>
<path d="M84.5835 66.25L90.8335 67.0833L97.0835 66.25" stroke="#665214" stroke-width="5" stroke-linecap="round"/>
<rect x="18.8318" y="12.3149" width="9.44444" height="105.81" rx="4.72222" transform="rotate(-15.7345 18.8318 12.3149)" fill="#303030"/>
<circle cx="142.5" cy="7.5" r="7.5" fill="#FFCE33"/>
<circle cx="153.75" cy="22.0833" r="3.75" fill="#FFCE33"/>
<circle cx="166.25" cy="55.4167" r="3.75" fill="#FFEBAD"/>
<circle cx="142.917" cy="83.75" r="3.75" fill="#FFCE33"/>
<circle cx="3.75" cy="67.0835" r="3.75" fill="#FFCE33"/>
<circle cx="15.4167" cy="43.7499" r="7.91667" fill="#FFEBAD"/>
<path d="M84.2219 54.6667H89.8886H95.5553" stroke="#CCA529" stroke-width="3"/>
<circle cx="70.5277" cy="56.0836" r="14.0833" stroke="#CCA529" stroke-width="3"/>
<circle cx="110.194" cy="56.0836" r="14.0833" stroke="#CCA529" stroke-width="3"/>
<rect x="41.0183" y="117.033" width="37.5" height="28.3333" rx="5" transform="rotate(-108.424 41.0183 117.033)" fill="#FFCE33"/>
<path d="M42.5531 84.7251C42.0291 84.8996 41.7458 85.4659 41.9204 85.9899C42.0949 86.5139 42.6612 86.7971 43.1852 86.6226L42.5531 84.7251ZM43.1852 86.6226L58.9976 81.3551L58.3655 79.4577L42.5531 84.7251L43.1852 86.6226Z" fill="#E6B92E"/>
<path d="M45.7133 94.2125C45.1893 94.3871 44.906 94.9533 45.0806 95.4773C45.2551 96.0013 45.8214 96.2845 46.3453 96.11L45.7133 94.2125ZM46.3453 96.11L62.1577 90.8426L61.5257 88.9451L45.7133 94.2125L46.3453 96.11Z" fill="#E6B92E"/>
<path d="M48.6105 102.909C48.0865 103.084 47.8032 103.65 47.9778 104.174C48.1523 104.698 48.7186 104.981 49.2426 104.807L48.6105 102.909ZM49.2426 104.807L65.055 99.5394L64.4229 97.6419L48.6105 102.909L49.2426 104.807Z" fill="#E6B92E"/>
</svg>
